HIERARCHY
ROOT joint_Root
{
	OFFSET 0.0 0.0 0.0
	CHANNELS 6 Xposition Yposition Zposition Zrotation Xrotation Yrotation 
	JOINT Hips
	{
		OFFSET -17.1583 93.1646 452.98
		CHANNELS 6 Xposition Yposition Zposition Zrotation Xrotation Yrotation 
		JOINT Spine
		{
			OFFSET 15.7357 0.0 0.0
			CHANNELS 6 Xposition Yposition Zposition Zrotation Xrotation Yrotation 
			JOINT Chest
			{
				OFFSET 8.98455 -0.406207 0.0
				CHANNELS 6 Xposition Yposition Zposition Zrotation Xrotation Yrotation 
				JOINT Neck
				{
					OFFSET 16.3773 0.0 0.0
					CHANNELS 6 Xposition Yposition Zposition Zrotation Xrotation Yrotation 
					JOINT Head
					{
						OFFSET 6.45672 0.0 0.0
						CHANNELS 6 Xposition Yposition Zposition Zrotation Xrotation Yrotation 
						End Site
						{
							OFFSET 0.0 0.0 0.0
						}
					}
				}
				JOINT Shoulder_L
				{
					OFFSET 12.9942 -0.242716 4.98039
					CHANNELS 6 Xposition Yposition Zposition Zrotation Xrotation Yrotation 
					JOINT UpperArm_L
					{
						OFFSET 5.34809 0.0 0.0
						CHANNELS 6 Xposition Yposition Zposition Zrotation Xrotation Yrotation 
						JOINT LowerArm_L
						{
							OFFSET 24.3286 1.87007e-05 0.0
							CHANNELS 6 Xposition Yposition Zposition Zrotation Xrotation Yrotation 
							JOINT Hand_L
							{
								OFFSET 22.2916 0.0 0.0
								CHANNELS 6 Xposition Yposition Zposition Zrotation Xrotation Yrotation 
								End Site
								{
									OFFSET 0.0 0.0 0.0
								}
							}
						}
					}
				}
				JOINT Shoulder_R
				{
					OFFSET 12.9945 -0.242716 -4.98039
					CHANNELS 6 Xposition Yposition Zposition Zrotation Xrotation Yrotation 
					JOINT UpperArm_R
					{
						OFFSET -5.34813 0.0 0.0
						CHANNELS 6 Xposition Yposition Zposition Zrotation Xrotation Yrotation 
						JOINT LowerArm_R
						{
							OFFSET -24.3289 0.000322201 0.0
							CHANNELS 6 Xposition Yposition Zposition Zrotation Xrotation Yrotation 
							JOINT Hand_R
							{
								OFFSET -22.2915 -0.000108084 0.0
								CHANNELS 6 Xposition Yposition Zposition Zrotation Xrotation Yrotation 
								End Site
								{
									OFFSET 0.0 0.0 0.0
								}
							}
						}
					}
				}
			}
		}
		JOINT UpperLeg_L
		{
			OFFSET -2.19248 -6.46944 0.0
			CHANNELS 6 Xposition Yposition Zposition Zrotation Xrotation Yrotation 
			JOINT LowerLeg_L
			{
				OFFSET 39.0811 0.0 -1.23785e-05
				CHANNELS 6 Xposition Yposition Zposition Zrotation Xrotation Yrotation 
				JOINT Foot_L
				{
					OFFSET 40.9854 0.0 -1.26872e-05
					CHANNELS 6 Xposition Yposition Zposition Zrotation Xrotation Yrotation 
					JOINT Toes_L
					{
						OFFSET 11.7543 0.0 0.0
						CHANNELS 6 Xposition Yposition Zposition Zrotation Xrotation Yrotation 
						End Site
						{
							OFFSET 0.0 0.0 0.0
						}
					}
				}
			}
		}
		JOINT UpperLeg_R
		{
			OFFSET -2.19251 6.46944 0.0
			CHANNELS 6 Xposition Yposition Zposition Zrotation Xrotation Yrotation 
			JOINT LowerLeg_R
			{
				OFFSET -39.0811 -0.00228153 -0.0401928
				CHANNELS 6 Xposition Yposition Zposition Zrotation Xrotation Yrotation 
				JOINT Foot_R
				{
					OFFSET -40.9854 0.0 0.0
					CHANNELS 6 Xposition Yposition Zposition Zrotation Xrotation Yrotation 
					JOINT Toes_R
					{
						OFFSET -11.7543 0.0 0.0
						CHANNELS 6 Xposition Yposition Zposition Zrotation Xrotation Yrotation 
						End Site
						{
							OFFSET 0.0 0.0 0.0
						}
					}
				}
			}
		}
	}
}
MOTION
Frames:	7
Frame Time:	0.0333333
0.000000 0.000000 0.000000 0.000000 0.000000 -0.000000 -3.622120 91.963900 -2.074020 84.557100 -0.403904 6.423410 15.735700 0.000005 -0.000001 79.305200 86.391700 -77.068600 8.984550 -0.406207 -0.000000 -0.641547 -1.502940 4.462780 16.377300 -0.000001 -0.000001 9.966270 3.863700 -3.486530 6.456720 -0.000001 -0.000000 -3.349870 4.333640 -0.852599 12.994200 -0.242716 4.980390 -93.160600 8.671170 -69.884100 5.348090 -0.000007 -0.000001 -72.911600 27.791500 0.364178 24.328600 0.000019 0.000005 11.264800 27.947700 -23.025300 22.291600 -0.000001 0.000005 -1.955710 4.984950 7.637840 12.994500 -0.242716 -4.980390 87.165500 7.331170 -68.793400 -5.348130 -0.000001 -0.000004 -70.154000 17.240900 -3.308800 -24.328900 0.000322 -0.000009 1.061430 2.885770 -20.222200 -22.291500 -0.000108 -0.000004 -0.664952 5.268490 0.939387 -2.192480 -6.469440 -0.000000 -172.883000 5.169660 -2.468880 39.081100 -0.000007 -0.000012 0.360467 -0.666094 28.421500 40.985400 -0.000006 -0.000013 -0.798091 3.064280 -75.475600 11.754300 -0.000000 0.000003 0.000378 0.161000 -10.047000 -2.192510 6.469440 -0.000001 -170.481000 8.055290 -175.493000 -39.081100 -0.002282 -0.040193 0.137188 -0.456730 16.335200 -40.985400 0.000008 0.000006 6.027340 2.578530 -70.926900 -11.754300 -0.000006 -0.000006 -0.011013 0.278722 -5.247500
0.000000 0.000000 0.000000 0.000000 0.000000 -0.000000 -3.608240 91.981300 -2.051260 84.560100 -0.382207 6.359800 15.735700 0.000005 -0.000001 79.179500 86.390700 -76.955800 8.984550 -0.406207 -0.000000 -0.642418 -1.517940 4.437030 16.377300 -0.000001 -0.000001 9.887310 3.902390 -3.501180 6.456720 -0.000001 -0.000000 -3.398580 4.394490 -0.816979 12.994200 -0.242716 4.980390 -93.151400 8.642560 -69.877700 5.348090 -0.000007 -0.000001 -72.918200 27.715500 0.331227 24.328600 0.000019 0.000005 11.230700 27.908400 -22.987800 22.291600 -0.000001 0.000005 -1.996320 4.986180 7.611970 12.994500 -0.242716 -4.980390 87.155300 7.345780 -68.761900 -5.348130 -0.000001 -0.000004 -70.071800 16.480600 -2.782830 -24.328900 0.000322 -0.000009 1.118430 2.730130 -22.308800 -22.291500 -0.000108 -0.000004 -1.040880 5.243130 1.614750 -2.192480 -6.469440 -0.000000 -172.885000 5.158510 -2.457770 39.081100 -0.000007 -0.000012 0.357792 -0.664193 28.311600 40.985400 -0.000006 -0.000013 -0.788754 3.075210 -75.469800 11.754300 -0.000000 0.000003 0.000366 0.161217 -10.038200 -2.192510 6.469440 -0.000001 -170.494000 7.960630 -175.511000 -39.081100 -0.002282 -0.040193 0.132966 -0.444326 16.265500 -40.985400 0.000008 0.000006 5.843770 2.537570 -70.915300 -11.754300 -0.000006 -0.000006 -0.011650 0.283247 -5.062280
0.000000 0.000000 0.000000 0.000000 0.000000 -0.000000 -3.598310 91.982900 -2.049150 84.551600 -0.357189 6.281810 15.735700 0.000005 -0.000001 78.926300 86.380500 -76.704500 8.984550 -0.406207 -0.000000 -0.627683 -1.552780 4.433090 16.377300 -0.000001 -0.000001 9.758540 3.946280 -3.527670 6.456720 -0.000001 -0.000000 -3.449530 4.428880 -0.750519 12.994200 -0.242716 4.980390 -93.148600 8.645420 -69.900200 5.348090 -0.000007 -0.000001 -72.872200 27.686800 0.301132 24.328600 0.000019 0.000005 11.326600 28.047700 -23.073300 22.291600 -0.000001 0.000005 -1.990750 4.986910 7.596520 12.994500 -0.242716 -4.980390 87.159900 7.316390 -68.716100 -5.348130 -0.000001 -0.000004 -69.980800 15.299600 -2.145350 -24.328900 0.000322 -0.000009 1.366290 2.897920 -25.271500 -22.291500 -0.000108 -0.000004 -1.440820 5.224620 2.095020 -2.192480 -6.469440 -0.000000 -172.877000 5.157610 -2.547380 39.081100 -0.000007 -0.000012 0.359777 -0.667730 28.316900 40.985400 -0.000006 -0.000013 -0.777892 3.091550 -75.463400 11.754300 -0.000000 0.000003 0.000285 0.162674 -9.979100 -2.192510 6.469440 -0.000001 -170.475000 7.934640 -175.581000 -39.081100 -0.002282 -0.040193 0.132035 -0.441958 16.236700 -40.985400 0.000008 0.000006 5.843000 2.490780 -70.865000 -11.754300 -0.000006 -0.000006 -0.011476 0.282021 -5.112480
0.000000 0.000000 0.000000 0.000000 0.000000 -0.000000 -3.574360 91.988600 -2.054060 84.559100 -0.332174 6.201440 15.735700 0.000005 -0.000001 78.540600 86.359600 -76.311300 8.984550 -0.406207 -0.000000 -0.595133 -1.608750 4.448290 16.377300 -0.000001 -0.000001 9.582310 3.973990 -3.506480 6.456720 -0.000001 -0.000000 -3.546320 4.493080 -0.757066 12.994200 -0.242716 4.980390 -93.159100 8.656470 -69.861700 5.348090 -0.000007 -0.000001 -72.828400 27.790700 0.238003 24.328600 0.000019 0.000005 11.304500 27.939700 -23.105300 22.291600 -0.000001 0.000005 -2.004550 4.984160 7.654600 12.994500 -0.242716 -4.980390 87.155400 7.283470 -68.598300 -5.348130 -0.000001 -0.000004 -69.811100 13.698400 -1.472840 -24.328900 0.000322 -0.000009 1.693140 3.043340 -29.122300 -22.291500 -0.000108 -0.000004 -1.760310 5.205160 2.589550 -2.192480 -6.469440 -0.000000 -172.913000 5.204800 -2.625120 39.081100 -0.000007 -0.000012 0.362826 -0.673822 28.301500 40.985400 -0.000006 -0.000013 -0.769136 3.040390 -75.486500 11.754300 -0.000000 0.000003 0.000240 0.163478 -9.946440 -2.192510 6.469440 -0.000001 -170.492000 7.895720 -175.698000 -39.081100 -0.002282 -0.040193 0.131464 -0.438326 16.295400 -40.985400 0.000008 0.000006 5.659580 2.467430 -70.864900 -11.754300 -0.000006 -0.000006 -0.011171 0.279860 -5.200950
0.000000 0.000000 0.000000 0.000000 0.000000 -0.000000 -3.536200 91.999600 -2.048570 84.528700 -0.375718 6.122810 15.735700 0.000005 -0.000001 78.447500 86.347600 -76.186500 8.984550 -0.406207 -0.000000 -0.572980 -1.627040 4.511900 16.377300 -0.000001 -0.000001 9.396680 3.996050 -3.467790 6.456720 -0.000001 -0.000000 -3.742110 4.527360 -0.730891 12.994200 -0.242716 4.980390 -93.172100 8.686270 -69.849000 5.348090 -0.000007 -0.000001 -72.821200 27.678100 0.227925 24.328600 0.000019 0.000005 11.280800 27.860100 -23.114900 22.291600 -0.000001 0.000005 -2.001490 4.983170 7.675400 12.994500 -0.242716 -4.980390 87.134300 7.311380 -68.528000 -5.348130 -0.000001 -0.000004 -69.391800 12.232000 -0.619702 -24.328900 0.000322 -0.000009 2.206470 3.249920 -34.202400 -22.291500 -0.000108 -0.000004 -1.657400 5.178150 3.261680 -2.192480 -6.469440 -0.000000 -172.888000 5.130060 -2.683620 39.081100 -0.000007 -0.000012 0.356990 -0.664080 28.262000 40.985400 -0.000006 -0.000013 -0.751797 3.018020 -75.428100 11.754300 -0.000000 0.000003 0.000297 0.162471 -9.987330 -2.192510 6.469440 -0.000001 -170.482000 7.805440 -175.751000 -39.081100 -0.002282 -0.040193 0.127435 -0.425891 16.246500 -40.985400 0.000008 0.000006 5.543440 2.499450 -70.806200 -11.754300 -0.000006 -0.000006 -0.011414 0.281580 -5.130530
0.000000 0.000000 0.000000 0.000000 0.000000 -0.000000 -3.506370 92.006700 -2.056900 84.507500 -0.386897 6.003500 15.735700 0.000005 -0.000001 77.934400 86.339300 -75.637000 8.984550 -0.406207 -0.000000 -0.568093 -1.697060 4.584420 16.377300 -0.000001 -0.000001 9.130370 4.025530 -3.381570 6.456720 -0.000001 -0.000000 -4.029160 4.570650 -0.625631 12.994200 -0.242716 4.980390 -93.189000 8.722390 -69.826700 5.348090 -0.000007 -0.000001 -72.824300 27.604200 0.252057 24.328600 0.000019 0.000005 11.295800 27.811600 -23.176300 22.291600 -0.000001 0.000005 -1.940660 4.986410 7.607070 12.994500 -0.242716 -4.980390 87.133900 7.291030 -68.471100 -5.348130 -0.000001 -0.000004 -68.822400 10.740800 0.155071 -24.328900 0.000322 -0.000009 3.651570 4.322070 -40.254000 -22.291500 -0.000108 -0.000004 -1.818600 5.161580 3.664900 -2.192480 -6.469440 -0.000000 -172.880000 5.137390 -2.797560 39.081100 -0.000007 -0.000012 0.359327 -0.668819 28.248000 40.985400 -0.000006 -0.000013 -0.729584 3.022820 -75.423200 11.754300 -0.000000 0.000003 0.000379 0.160980 -10.047900 -2.192510 6.469440 -0.000001 -170.480000 7.835420 -175.870000 -39.081100 -0.002282 -0.040193 0.125810 -0.420543 16.238200 -40.985400 0.000008 0.000006 5.444850 2.521890 -70.809800 -11.754300 -0.000006 -0.000006 -0.011518 0.282318 -5.100320
0.000000 0.000000 0.000000 0.000000 0.000000 -0.000000 -3.454200 92.022900 -2.087590 84.484600 -0.421418 5.814440 15.735700 0.000005 -0.000001 77.590600 86.350300 -75.253900 8.984550 -0.406207 -0.000000 -0.597256 -1.738720 4.662290 16.377300 -0.000001 -0.000001 8.813080 4.080120 -3.163450 6.456720 -0.000001 -0.000000 -4.588150 4.660530 -0.456440 12.994200 -0.242716 4.980390 -93.199000 8.742020 -69.809700 5.348090 -0.000007 -0.000001 -72.807500 27.711400 0.265156 24.328600 0.000019 0.000005 11.310200 27.701600 -23.279300 22.291600 -0.000001 0.000005 -1.979940 4.984560 7.646050 12.994500 -0.242716 -4.980390 87.133400 7.255480 -68.372500 -5.348130 -0.000001 -0.000004 -68.039900 9.403650 0.968630 -24.328900 0.000322 -0.000009 5.407840 4.957970 -47.603700 -22.291500 -0.000108 -0.000004 -2.060260 5.120530 4.639850 -2.192480 -6.469440 -0.000000 -172.875000 5.071680 -2.987450 39.081100 -0.000007 -0.000012 0.358363 -0.668083 28.210100 40.985400 -0.000006 -0.000013 -0.700503 2.997290 -75.395200 11.754300 -0.000000 0.000003 0.000238 0.163524 -9.944580 -2.192510 6.469440 -0.000001 -170.482000 7.816680 -176.048000 -39.081100 -0.002282 -0.040193 0.123722 -0.415064 16.175500 -40.985400 0.000008 0.000006 5.398460 2.617910 -70.766600 -11.754300 -0.000006 -0.000006 -0.011487 0.282101 -5.109190
